PathFileType	4	(X/Y/Z)	C:/Users/opensim2020/Desktop/walking_exp_matlab/subject03_walking04_straight_01.trc																																																																																																																																																							
DataRate	CameraRate	NumFrames	NumMarkers	Units	OrigDataRate	OrigDataStartFrame	OrigNumFrames																																																																																																																																																			
100	100	5	51	mm	100	802	265																																																																																																																																																			
Frame#	Time	LFHD			RFHD			LBHD			RBHD			C7			T10			CLAV			STRN			RBAK			LSHO			LUPA			LELB			LFRM			LWRA			LWRB			LFIN			RSHO			RUPA			RELB			RFRM			RWRA			RWRB			RFIN			LASI			RASI			LPSI			RPSI			LTHI			LKNE			LTIB			LANK			LHEE			LTOE			RTHI			RKNE			RTIB			RANK			RHEE			RTOE			*39			*40			*41			*42			*43			*44			*45			*46			*47			*48			*49			*50		
		X1	Y1	Z1	X2	Y2	Z2	X3	Y3	Z3	X4	Y4	Z4	X5	Y5	Z5	X6	Y6	Z6	X7	Y7	Z7	X8	Y8	Z8	X9	Y9	Z9	X10	Y10	Z10	X11	Y11	Z11	X12	Y12	Z12	X13	Y13	Z13	X14	Y14	Z14	X15	Y15	Z15	X16	Y16	Z16	X17	Y17	Z17	X18	Y18	Z18	X19	Y19	Z19	X20	Y20	Z20	X21	Y21	Z21	X22	Y22	Z22	X23	Y23	Z23	X24	Y24	Z24	X25	Y25	Z25	X26	Y26	Z26	X27	Y27	Z27	X28	Y28	Z28	X29	Y29	Z29	X30	Y30	Z30	X31	Y31	Z31	X32	Y32	Z32	X33	Y33	Z33	X34	Y34	Z34	X35	Y35	Z35	X36	Y36	Z36	X37	Y37	Z37	X38	Y38	Z38	X39	Y39	Z39	X40	Y40	Z40	X41	Y41	Z41	X42	Y42	Z42	X43	Y43	Z43	X44	Y44	Z44	X45	Y45	Z45	X46	Y46	Z46	X47	Y47	Z47	X48	Y48	Z48	X49	Y49	Z49	X50	Y50	Z50	X51	Y51	Z51
																																																																																																																																																										
67	0.66	-767.08087	1592.35229	-1250.26807	-785.62189	1610.03223	-1119.15808	-891.48615	1539.22351	-1257.84082	-905.32147	1556.74951	-1127.67139	-921.8158	1396.75549	-1180.93408	-968.86987	1085.51575	-1178.20178	-803.39276	1314.81665	-1173.90369	-767.19006	1146.86426	-1173.10876	-984.16693	1228.3512	-1078.04382	-845.237	1350.2926	-1333.12939	-892.21619	1155.85071	-1400.51636	-908.58081	1034.06091	-1414.48157	-903.63104	903.685	-1419.59644	-898.03314	783.08923	-1394.62024	-929.27643	793.4743	-1439.68152	-923.75092	709.38251	-1434.39478	-849.52405	1345.4093	-1017.58252	-815.48499	1133.43591	-931.55493	-772.9032	1030.11328	-913.55847	-713.15338	907.41791	-911.90479	-655.13507	827.93402	-950.47845	-679.17023	813.14795	-904.58411	-633.11804	755.8515	-915.77405	-797.68622	912.8479	-1282.26758	-822.82068	915.18842	-1045.20239	-964.26776	939.02759	-1253.69092	-976.3208	954.76178	-1104.16846	-790.68768	616.02472	-1326.08765	-729.79163	455.78201	-1272.25903	-714.71454	262.56476	-1274.30798	-655.91931	61.18727	-1236.27405	-687.54303	23.87642	-1198.65881	-504.25235	49.38799	-1207.50415	-939.32428	636.25165	-1009.34576	-972.53516	458.40375	-1038.65515	-1085.20447	298.67422	-1038.84277	-1190.82104	107.8004	-1088.20837	-1241.70349	93.04832	-1140.04919	-1067.23376	28.38301	-1107.02698	NaN	NaN	NaN	NaN	NaN	NaN	NaN	NaN	NaN	NaN	NaN	NaN	NaN	NaN	NaN	NaN	NaN	NaN	NaN	NaN	NaN	NaN	NaN	NaN	NaN	NaN	NaN	NaN	NaN	NaN	NaN	NaN	NaN	NaN	NaN	NaN
68	0.67	-757.47455	1592.43542	-1251.30774	-776.32642	1610.37195	-1120.27417	-881.67346	1538.75366	-1259.00903	-895.8653	1556.50134	-1128.8833	-911.82159	1396.46301	-1182.21045	-957.70337	1085.12805	-1179.16663	-793.07556	1314.92419	-1174.53149	-756.27905	1147.15149	-1173.33984	-974.18359	1228.04163	-1079.84631	-834.39203	1350.01685	-1334.07581	-881.2691	1155.22021	-1400.79309	-897.79126	1033.375	-1414.21875	-894.15717	902.92358	-1419.11609	-890.37878	781.95898	-1393.58777	-920.99896	792.93005	-1438.97424	-916.89697	708.67352	-1433.22363	-840.0105	1345.28516	-1018.48663	-806.52283	1132.89246	-932.87457	-764.3241	1029.34912	-914.97253	-704.62311	906.60864	-913.74896	-646.50177	827.30328	-952.36279	-670.72754	812.28699	-906.77832	-624.8219	755.09631	-917.91315	-785.48645	913.28418	-1282.58008	-811.38336	914.52551	-1045.53394	-952.09094	939.07257	-1254.54932	-964.89508	953.98993	-1104.94312	-777.29962	617.39209	-1325.76563	-720.18219	455.62482	-1272.15649	-707.33044	261.91159	-1272.74597	-651.24084	60.6712	-1236.16516	-685.22528	25.80538	-1198.87	-500.9476	39.51912	-1205.81604	-928.15717	635.62543	-1009.17834	-960.9278	457.56583	-1037.9165	-1077.24707	300.11203	-1038.28455	-1187.52075	112.14173	-1087.18433	-1238.53979	99.05783	-1139.198	-1066.72534	28.29417	-1106.89978	NaN	NaN	NaN	NaN	NaN	NaN	NaN	NaN	NaN	NaN	NaN	NaN	NaN	NaN	NaN	NaN	NaN	NaN	NaN	NaN	NaN	NaN	NaN	NaN	NaN	NaN	NaN	NaN	NaN	NaN	NaN	NaN	NaN	NaN	NaN	NaN
69	0.68	-747.86938	1593.02649	-1252.27844	-767.07684	1611.16101	-1121.30054	-871.83813	1538.80212	-1260.12195	-886.34741	1556.7699	-1130.03735	-901.7323	1396.70715	-1183.71484	-946.37079	1085.11609	-1179.94873	-782.77924	1315.48071	-1175.26038	-745.27142	1147.87805	-1173.78247	-964.27002	1227.90735	-1081.74658	-823.30396	1350.0752	-1335.18542	-870.00598	1154.80225	-1401.03333	-886.82794	1033.01563	-1414.1814	-884.17792	902.42474	-1418.60608	-881.03333	781.94025	-1393.10425	-912.2547	792.64514	-1438.30505	-909.49164	708.31409	-1432.08984	-830.59747	1345.5658	-1019.33649	-797.58521	1132.64331	-934.34668	-755.84473	1028.82434	-916.53485	-696.466	905.89783	-915.60516	-638.21991	826.76672	-954.38745	-662.7121	811.51831	-909.05505	-616.94653	754.25378	-920.19568	-773.12146	914.1828	-1283.0304	-799.73035	914.13544	-1045.95605	-940.04352	939.72321	-1255.52722	-953.13861	953.47906	-1105.63416	-764.68445	619.14935	-1325.68494	-712.1842	455.09048	-1272.172	-699.15039	262.30792	-1273.2323	-646.35406	60.24426	-1236.73181	-682.72626	27.23384	-1200.01404	-496.73718	35.91776	-1204.07532	-916.11383	635.12286	-1009.36487	-948.2243	456.81369	-1037.08374	-1068.38708	301.93414	-1037.66284	-1183.36121	116.63711	-1086.58423	-1234.44873	105.94981	-1138.45593	-1066.13403	28.24457	-1106.79956	NaN	NaN	NaN	NaN	NaN	NaN	NaN	NaN	NaN	NaN	NaN	NaN	NaN	NaN	NaN	NaN	NaN	NaN	NaN	NaN	NaN	NaN	NaN	NaN	NaN	NaN	NaN	NaN	NaN	NaN	NaN	NaN	NaN	NaN	NaN	NaN
70	0.69	-738.16095	1594.08301	-1253.24731	-757.74756	1612.40662	-1122.21655	-861.97369	1539.40149	-1261.21655	-876.79736	1557.56238	-1131.24731	-891.53424	1397.45166	-1185.22253	-935.026	1085.37512	-1180.6925	-772.50299	1316.44946	-1175.87891	-734.36975	1149.09351	-1173.89001	-954.36127	1228.21448	-1083.65393	-812.07898	1350.47314	-1336.24438	-858.39941	1154.76074	-1401.25916	-875.47223	1032.89124	-1414.0741	-873.81818	902.26837	-1418.19055	-872.5719	781.38092	-1392.05554	-902.89319	792.9173	-1437.99927	-901.58142	708.3623	-1431.0387	-821.19556	1346.19348	-1020.12262	-788.70313	1132.76965	-935.94165	-747.48853	1028.58545	-918.25647	-688.56683	905.39398	-917.66479	-630.43109	826.21637	-956.44733	-655.35657	810.85187	-911.29669	-609.66132	753.60443	-922.4906	-760.87225	915.83643	-1283.31104	-787.98279	914.10785	-1046.48889	-927.89484	940.85516	-1256.41907	-941.3302	953.41907	-1106.2561	-753.50916	620.87231	-1325.96106	-702.61627	456.63281	-1273.6637	-691.38715	263.10907	-1273.81714	-643.44623	60.32021	-1235.39673	-681.11377	28.19121	-1199.54993	-493.30939	34.35712	-1204.84717	-903.33759	634.74707	-1009.52374	-934.33142	456.13971	-1036.09338	-1058.61951	304.06519	-1036.91101	-1178.66577	122.20343	-1085.60095	-1229.43152	113.69505	-1137.87	-1065.42163	28.17288	-1106.72534	NaN	NaN	NaN	NaN	NaN	NaN	NaN	NaN	NaN	NaN	NaN	NaN	NaN	NaN	NaN	NaN	NaN	NaN	NaN	NaN	NaN	NaN	NaN	NaN	NaN	NaN	NaN	NaN	NaN	NaN	NaN	NaN	NaN	NaN	NaN	NaN
71	0.7	-728.46503	1595.64697	-1254.15674	-748.29602	1614.07214	-1123.19238	-852.04633	1540.57813	-1262.30469	-867.18842	1558.83374	-1132.40259	-881.26404	1398.78198	-1186.68823	-923.72559	1086.21082	-1181.48523	-762.26721	1318.04443	-1176.57678	-723.35913	1150.84192	-1174.34534	-944.38812	1229.04077	-1085.63916	-800.724	1351.33252	-1337.22717	-846.47247	1155.22498	-1401.5907	-863.73126	1033.35449	-1414.15295	-862.98553	902.56207	-1417.73364	-862.55548	782.02155	-1391.41638	-893.05292	793.23444	-1437.38928	-892.98743	708.77783	-1429.8363	-811.76666	1347.34509	-1021.00116	-779.98669	1133.30847	-937.59296	-739.21295	1028.79346	-920.21411	-681.13898	905.13898	-919.82953	-623.12842	825.87872	-958.58215	-648.4754	810.43243	-913.68951	-603.01855	753.05054	-924.82904	-748.86536	917.97095	-1283.65308	-776.07898	914.52063	-1047.22388	-915.72192	942.73029	-1257.29236	-929.50037	953.74286	-1106.80847	-743.38995	623.11517	-1327.01611	-692.12933	459.62454	-1273.97437	-684.68549	264.15796	-1274.59521	-643.2309	60.39108	-1234.39063	-681.02863	28.26269	-1199.09888	-492.25543	33.5423	-1204.67822	-889.81555	634.39075	-1009.59619	-919.1499	455.47482	-1035.00964	-1047.78259	306.67117	-1036.15015	-1172.58569	128.33269	-1084.65845	-1222.97375	122.34544	-1137.33252	-1064.52625	28.2023	-1106.46667	NaN	NaN	NaN	NaN	NaN	NaN	NaN	NaN	NaN	NaN	NaN	NaN	NaN	NaN	NaN	NaN	NaN	NaN	NaN	NaN	NaN	NaN	NaN	NaN	NaN	NaN	NaN	NaN	NaN	NaN	NaN	NaN	NaN	NaN	NaN	NaN
